# xmcd
#
# Track frame offsets:
#	150
#	14374
#	31816
#	48614
#	59355
#	70737
#	88336
#	101104
#	118417
#	131328
#	148509
#
# Disc length: 2199 seconds
#
# Revision: 1
# Processed by: cddbd v1.5.2PL0 Copyright (c) Steve Scherf et al.
# Submitted via: audiograbber 1.83.01
#
DISCID=9f08950b
DTITLE=Larry Cochran - Straight From The Heart
DYEAR=1900
DGENRE=gospel
TTITLE0=Beauty of Love
TTITLE1=Bible On the Bar
TTITLE2=The Final Altar Call
TTITLE3=Happy Ever After
TTITLE4=Walking In The Light
TTITLE5=Daddy  Did I Have To Die
TTITLE6=On The Other Cross
TTITLE7=Super Bowl Sunday
TTITLE8=Heavenly Destination
TTITLE9=Thunder From The Throne
TTITLE10=They Sang Amazing Grace
EXTD=
EXTT0=
EXTT1=
EXTT2=
EXTT3=
EXTT4=
EXTT5=
EXTT6=
EXTT7=
EXTT8=
EXTT9=
EXTT10=
PLAYORDER=
